<svg width="9353" height="1239" viewBox="0 0 9353 1239" fill="none" xmlns="http://www.w3.org/2000/svg"><path d="M958.942 0H279.837C125.307 0 0 125.304 0 279.83V958.886C0 1113.44 125.307 1238.72 279.837 1238.72H958.911C1113.47 1238.72 1238.75 1113.41 1238.75 958.886V279.83C1238.75 125.272 1113.44 0 958.911 0H958.942ZM812.036 1005.89H698.894L793.168 416.886L585.752 1005.89H472.61L576.318 453.731L359.468 1005.89H246.327L359.468 490.544L246.327 232.853H359.468L576.318 435.309L472.61 232.853H585.752L793.168 398.495L698.894 232.853H812.036L1019.45 361.682L812.036 1005.93V1005.89Z" fill="#FFDD33"/><path d="M698.914 232.83L793.189 398.473L585.804 232.83H472.662L576.37 435.286L359.52 232.83H246.378L359.52 490.521L246.378 1005.87H359.52L576.37 453.708L472.662 1005.87H585.804L793.189 416.895L698.914 1005.87H812.056L1019.47 361.66L812.056 232.83H698.914Z" fill="#1C1C1E"/><path fill-rule="evenodd" clip-rule="evenodd" d="M2418.19 358.026C2454.55 358.026 2484.02 328.717 2484.02 292.563C2484.02 256.408 2454.55 227.1 2418.19 227.1C2381.84 227.1 2352.37 256.408 2352.37 292.563C2352.37 328.717 2381.84 358.026 2418.19 358.026ZM1745.86 413.476C1791.01 413.487 1847.43 439.023 1878.15 483.926C1909.96 443.079 1962.27 415.509 2026.91 414.461C2109.03 413.413 2210.56 464.487 2210.56 617.679V917.869H2094.59V617.679C2094.59 566.605 2057.64 529.887 2002.32 529.887C1947.01 529.887 1910.02 566.605 1910.02 617.679V917.869H1794.09V617.679C1794.09 566.605 1757.17 529.887 1701.79 529.887C1646.41 529.887 1608.44 566.605 1608.44 617.679V917.869H1486.5V428.691H1608.44V477.828C1641.29 438.037 1689.44 413.487 1745.86 413.476ZM2619.8 635.38V918.227H2735.73V652.722C2735.73 534.469 2896.79 534.279 2896.79 534.279V419.202C2896.79 419.202 2851.76 421.203 2816.18 429.208C2715.29 451.886 2619.8 501.627 2619.8 635.38ZM2477.16 918.231V434.929H2359.25V918.231H2477.16ZM2953.15 669.484C2953.15 527.504 3068.86 412.428 3211.63 412.428C3354.39 412.428 3470.1 527.504 3470.1 669.484C3470.1 811.463 3354.39 926.54 3211.63 926.54C3068.86 926.54 2953.15 811.463 2953.15 669.484ZM3065.29 665.418C3065.29 745.81 3130.82 810.955 3211.63 810.955C3292.46 810.955 3357.97 745.81 3357.97 665.418C3357.97 585.027 3292.46 519.881 3211.63 519.881C3130.79 519.881 3065.29 585.027 3065.29 665.418Z" fill="#1C1C1E"/><rect x="3965.73" y="485.595" width="23.0188" height="437.358" fill="#1C1C1E"/><path d="M4561.94 924.699V437.188H4720.04C4854.45 437.188 4969.36 517.976 4969.36 680.944C4969.36 843.912 4854.45 924.699 4720.04 924.699H4561.94ZM4653.18 844.608H4711.68C4795.95 844.608 4876.04 801.429 4876.04 680.944C4876.04 560.459 4795.95 516.583 4711.68 516.583H4653.18V844.608ZM5093.3 924.699V437.188H5417.15V516.583H5184.53V634.978H5371.18V714.373H5184.53V844.608H5424.81V924.699H5093.3Z" fill="#1C1C1E"/><path d="M6027.2 723.602L5539.69 901.892L5539.69 809.265L5913.68 679.03L5539.69 548.795L5539.69 456.168L6027.2 634.457L6027.2 723.602Z" fill="#1C1C1E"/><path d="M6126.32 924.699V437.188H6450.16V516.583H6217.55V634.978H6404.2V714.373H6217.55V844.608H6457.83V924.699H6126.32ZM6578.78 924.699V437.188H6670.71V844.608H6898.45V924.699H6578.78ZM7197.64 930.271C7055.56 930.271 6951.1 824.411 6951.1 680.944C6951.1 537.476 7055.56 431.617 7197.64 431.617C7338.32 431.617 7443.48 537.476 7443.48 680.944C7443.48 824.411 7338.32 930.271 7197.64 930.271ZM7043.72 680.944C7043.72 778.446 7107.8 850.18 7196.94 850.18C7286.09 850.18 7350.86 778.446 7350.86 680.944C7350.86 583.441 7286.09 511.011 7196.94 511.011C7107.8 511.011 7043.72 583.441 7043.72 680.944ZM7566.68 924.699V437.188H7761.68C7864.06 437.188 7923.96 499.868 7923.96 588.317C7923.96 676.765 7864.06 739.445 7761.68 739.445H7658.61V924.699H7566.68ZM7658.61 662.14H7757.5C7811.83 662.14 7834.11 627.317 7834.11 588.317C7834.11 549.316 7811.83 514.493 7757.5 514.493H7658.61V662.14ZM8034.78 924.699V437.188H8358.63V516.583H8126.02V634.978H8312.67V714.373H8126.02V844.608H8366.29V924.699H8034.78ZM8487.25 924.699V437.188H8686.43C8788.11 437.188 8848.7 499.172 8848.7 587.62C8848.7 637.764 8822.93 671.89 8783.24 692.783C8815.97 713.677 8837.56 749.892 8841.04 794.464L8852.88 924.699H8761.65L8749.81 804.911C8747.02 767.999 8721.25 741.534 8684.34 741.534H8579.18V924.699H8487.25ZM8579.18 662.14H8682.25C8736.57 662.14 8758.86 626.621 8758.86 587.62C8758.86 548.619 8736.57 514.493 8682.25 514.493H8579.18V662.14ZM9144.08 930.271C9033.35 930.271 8960.92 863.412 8956.04 761.035H9044.49C9049.37 815.357 9085.58 850.18 9144.08 850.18C9196.32 850.18 9232.53 829.286 9232.53 786.107C9232.53 681.64 8970.67 754.07 8970.67 567.423C8970.67 487.332 9039.62 431.617 9138.51 431.617C9241.58 431.617 9311.23 490.814 9315.41 582.049H9227.66C9223.48 539.565 9190.05 511.011 9138.51 511.011C9090.46 511.011 9060.51 533.297 9060.51 567.423C9060.51 675.372 9325.85 594.585 9325.85 784.714C9325.85 875.252 9251.33 930.271 9144.08 930.271Z" fill="#1C1C1E"/></svg>